<?xml version="1.0" encoding="utf-8"?>
<!-- Generator: Adobe Illustrator 19.2.1, SVG Export Plug-In . SVG Version: 6.00 Build 0)  -->
<svg version="1.1" id="Layer_1" xmlns="http://www.w3.org/2000/svg" xmlns:xlink="http://www.w3.org/1999/xlink" x="0px" y="0px"
	 viewBox="0 0 367 124" style="enable-background:new 0 0 367 124;" xml:space="preserve">
<style type="text/css">
	.st0{fill:#FFFFFF;}
</style>
<g transform="matrix(1.0480875968933105, 0, 0, 1.0480875968933105, -865.0250886232554, -423.8434206547142)">
	<g>
		<g>
			<path class="st0" d="M943.6,463.6c0-8.2-15.2-19.7-26.7-27.4c-2.2-1.4-4.8,1.4-3.1,3.4c6.3,7.9,13.5,18,13.5,23.9
				c0,5.9-7.1,16-13.5,23.9c-1.7,2.1,0.9,5,3.1,3.4C928.4,483.3,943.6,471.8,943.6,463.6z"/>
		</g>
		<g>
			<path class="st0" d="M825.8,463.6c0,8.2,15.2,19.7,26.7,27.4c2.2,1.4,4.8-1.4,3.1-3.4c-6.3-7.9-13.5-18-13.5-23.9
				c0-5.9,7.1-16,13.5-23.9c1.7-2.1-0.9-5-3.1-3.4C841,443.8,825.8,455.4,825.8,463.6z"/>
		</g>
	</g>
	<g>
		<g>
			<path class="st0" d="M884.7,522.3c8.2,0,19.7-15.2,27.4-26.7c1.4-2.2-1.4-4.8-3.4-3.1c-7.9,6.3-18,13.5-23.9,13.5
				s-16-7.1-23.9-13.5c-2.1-1.7-5,0.9-3.4,3.1C865,507.1,876.4,522.3,884.7,522.3z"/>
		</g>
		<g>
			<path class="st0" d="M884.7,404.8c-8.2,0-19.7,15.2-27.4,26.7c-1.4,2.2,1.4,4.8,3.4,3.1c7.9-6.3,18-13.5,23.9-13.5
				s16,7.1,23.9,13.5c2.1,1.7,5-0.9,3.4-3.1C904.4,420,893,404.8,884.7,404.8z"/>
		</g>
	</g>
</g>
<path class="st0" d="M181.4,37.1v33.3c0,7.2-2.1,12.9-6.2,16.8c-4.1,4-10,6-17.7,6c-7.6,0-13.4-1.9-17.4-5.8
	c-4-3.9-6.1-9.4-6.1-16.7V37.1h15v32.5c0,3.9,0.7,6.8,2.2,8.5c1.5,1.8,3.6,2.6,6.5,2.6c3.1,0,5.3-0.9,6.6-2.6
	c1.4-1.8,2.1-4.6,2.1-8.6V37.1H181.4z M245.1,63.6c0,9.2-2.5,16.4-7.6,21.4c-5.1,5-12.2,7.5-21.5,7.5h-17.9V37.1h19.2
	c8.9,0,15.7,2.3,20.6,6.8C242.7,48.4,245.1,55,245.1,63.6 M229.6,64.1c0-5.1-1-8.8-3-11.3s-5.1-3.7-9.1-3.7h-4.4v31h3.3
	c4.5,0,7.9-1.3,10-4C228.5,73.5,229.6,69.5,229.6,64.1z M307.2,37.1v33.3c0,7.2-2.1,12.9-6.2,16.8c-4.1,4-10,6-17.7,6
	c-7.6,0-13.4-1.9-17.4-5.8c-4-3.9-6.1-9.4-6.1-16.7V37.1h15v32.5c0,3.9,0.7,6.8,2.2,8.5c1.5,1.8,3.6,2.6,6.5,2.6
	c3.1,0,5.3-0.9,6.6-2.6c1.4-1.8,2.1-4.6,2.1-8.6V37.1H307.2z M324,37.1h19.3c7.5,0,13.1,1.1,16.8,3.3c3.6,2.2,5.5,5.7,5.5,10.4
	c0,3.1-0.8,5.8-2.4,7.9c-1.6,2.2-3.7,3.6-6.3,4.3v0.4c3.4,0.9,5.9,2.4,7.5,4.5c1.5,2.1,2.3,4.9,2.3,8.3c0,5-1.9,9-5.7,11.9
	s-8.9,4.3-15.4,4.3H324V37.1 M338.9,58.3h4.5c2.1,0,3.8-0.4,5-1.3c1.2-0.9,1.8-2.2,1.8-3.9c0-3.1-2.3-4.7-7-4.7h-4.2V58.3
	 M338.9,69.2v11.6h5.3c4.7,0,7-2,7-5.9c0-1.8-0.6-3.3-1.9-4.2c-1.2-1-3.1-1.5-5.4-1.5H338.9z"/>
<path class="st0" d="M80.3,44.3v26.8c0,5.8-1.5,10.4-4.5,13.6c-3,3.2-7.4,4.8-13,4.8c-5.5,0-9.8-1.6-12.8-4.7
	c-3-3.1-4.5-7.6-4.5-13.4V44.3h11v26.1c0,3.2,0.5,5.4,1.6,6.9c1.1,1.4,2.7,2.1,4.7,2.1c2.3,0,3.9-0.7,4.9-2.1c1-1.4,1.5-3.7,1.5-6.9
	V44.3H80.3z"/>
<path class="st0" d="M157.4,110.5c0,1.2-0.4,2.1-1.3,2.7c-0.8,0.7-2,1-3.5,1s-2.7-0.2-3.6-0.7v-2c0.6,0.3,1.2,0.5,1.9,0.7
	c0.7,0.2,1.3,0.2,1.9,0.2c0.8,0,1.5-0.2,1.9-0.5c0.4-0.3,0.6-0.7,0.6-1.3c0-0.5-0.2-0.9-0.5-1.2c-0.4-0.3-1.1-0.7-2.3-1.2
	c-1.2-0.5-2-1-2.5-1.6c-0.5-0.6-0.7-1.4-0.7-2.2c0-1.1,0.4-1.9,1.2-2.6c0.8-0.6,1.8-0.9,3.1-0.9c1.3,0,2.5,0.3,3.7,0.8l-0.7,1.7
	c-1.2-0.5-2.2-0.7-3.1-0.7c-0.7,0-1.2,0.2-1.6,0.5c-0.4,0.3-0.5,0.7-0.5,1.2c0,0.3,0.1,0.6,0.2,0.9c0.1,0.2,0.4,0.5,0.7,0.7
	c0.3,0.2,0.9,0.5,1.8,0.8c1,0.4,1.7,0.8,2.1,1.1c0.4,0.3,0.8,0.7,1,1.2C157.3,109.4,157.4,109.9,157.4,110.5z M171.5,107.5
	c0,2.1-0.5,3.8-1.6,4.9c-1.1,1.2-2.6,1.8-4.5,1.8c-2,0-3.5-0.6-4.5-1.8c-1.1-1.2-1.6-2.8-1.6-5c0-2.2,0.5-3.8,1.6-5
	c1.1-1.2,2.6-1.7,4.5-1.7c1.9,0,3.4,0.6,4.5,1.8C171,103.7,171.5,105.4,171.5,107.5 M161.6,107.5c0,1.6,0.3,2.8,1,3.7
	c0.6,0.8,1.6,1.2,2.9,1.2c1.3,0,2.2-0.4,2.9-1.2c0.6-0.8,1-2,1-3.7c0-1.6-0.3-2.8-1-3.6c-0.6-0.8-1.6-1.2-2.9-1.2
	c-1.3,0-2.2,0.4-2.9,1.2C161.9,104.7,161.6,105.9,161.6,107.5z M176.4,114.1h-2.1v-13h7.4v1.8h-5.2v4.1h4.9v1.8h-4.9V114.1z
	 M188.5,114.1h-2.1v-11.2h-3.8V101h9.8v1.8h-3.8V114.1z M206.4,114.1h-2.3l-2.2-7.8c-0.1-0.3-0.2-0.8-0.4-1.5
	c-0.1-0.6-0.2-1.1-0.3-1.3c-0.1,0.4-0.2,0.9-0.3,1.5c-0.1,0.6-0.2,1.1-0.3,1.4l-2.2,7.7h-2.3l-1.7-6.5l-1.7-6.5h2.2l1.9,7.6
	c0.3,1.2,0.5,2.3,0.6,3.2c0.1-0.5,0.2-1.1,0.3-1.7c0.1-0.6,0.2-1.1,0.4-1.5l2.1-7.6h2.1l2.2,7.7c0.2,0.7,0.4,1.8,0.7,3.2
	c0.1-0.8,0.3-1.9,0.6-3.2l1.9-7.6h2.2L206.4,114.1z M219.7,114.1l-1.3-3.6h-5l-1.3,3.6h-2.2l4.9-13.1h2.3l4.9,13.1H219.7
	 M217.9,108.6l-1.2-3.6c-0.1-0.2-0.2-0.6-0.4-1.1s-0.3-0.9-0.3-1.1c-0.2,0.7-0.4,1.5-0.7,2.4l-1.2,3.4H217.9z M225.8,107.1h1.5
	c1,0,1.7-0.2,2.2-0.6c0.4-0.4,0.7-0.9,0.7-1.6c0-0.7-0.2-1.3-0.7-1.6c-0.5-0.3-1.2-0.5-2.2-0.5h-1.4V107.1 M225.8,108.9v5.2h-2.1
	v-13h3.7c1.7,0,2.9,0.3,3.7,0.9c0.8,0.6,1.2,1.6,1.2,2.9c0,1.6-0.8,2.8-2.5,3.5l3.7,5.8h-2.4l-3.1-5.2H225.8z M242.8,114.1h-7.4v-13
	h7.4v1.8h-5.2v3.6h4.9v1.8h-4.9v4.1h5.2V114.1z M257.8,110.5c0,1.2-0.4,2.1-1.3,2.7c-0.8,0.7-2,1-3.5,1c-1.5,0-2.7-0.2-3.6-0.7v-2
	c0.6,0.3,1.2,0.5,1.9,0.7c0.7,0.2,1.3,0.2,1.9,0.2c0.8,0,1.5-0.2,1.9-0.5c0.4-0.3,0.6-0.7,0.6-1.3c0-0.5-0.2-0.9-0.5-1.2
	c-0.4-0.3-1.1-0.7-2.3-1.2c-1.2-0.5-2-1-2.5-1.6c-0.5-0.6-0.7-1.4-0.7-2.2c0-1.1,0.4-1.9,1.2-2.6c0.8-0.6,1.8-0.9,3.1-0.9
	c1.3,0,2.5,0.3,3.7,0.8l-0.7,1.7c-1.2-0.5-2.2-0.7-3.1-0.7c-0.7,0-1.2,0.2-1.6,0.5c-0.4,0.3-0.5,0.7-0.5,1.2c0,0.3,0.1,0.6,0.2,0.9
	c0.1,0.2,0.4,0.5,0.7,0.7c0.3,0.2,0.9,0.5,1.8,0.8c1,0.4,1.7,0.8,2.1,1.1c0.4,0.3,0.8,0.7,1,1.2
	C257.7,109.4,257.8,109.9,257.8,110.5z M271.9,107.5c0,2.1-0.5,3.8-1.6,4.9c-1.1,1.2-2.6,1.8-4.5,1.8c-2,0-3.5-0.6-4.5-1.8
	c-1.1-1.2-1.6-2.8-1.6-5c0-2.2,0.5-3.8,1.6-5c1.1-1.2,2.6-1.7,4.5-1.7c1.9,0,3.4,0.6,4.5,1.8C271.4,103.7,271.9,105.4,271.9,107.5
	 M262,107.5c0,1.6,0.3,2.8,1,3.7c0.6,0.8,1.6,1.2,2.9,1.2c1.3,0,2.2-0.4,2.9-1.2c0.6-0.8,1-2,1-3.7c0-1.6-0.3-2.8-1-3.6
	c-0.6-0.8-1.6-1.2-2.9-1.2c-1.3,0-2.2,0.4-2.9,1.2C262.3,104.7,262,105.9,262,107.5z M274.7,114.1v-13h2.1v11.2h5.5v1.8H274.7z
	 M294.9,101v8.4c0,1-0.2,1.8-0.6,2.5c-0.4,0.7-1,1.3-1.8,1.7c-0.8,0.4-1.7,0.6-2.8,0.6c-1.6,0-2.9-0.4-3.8-1.3
	c-0.9-0.9-1.3-2-1.3-3.5V101h2.1v8.3c0,1.1,0.3,1.9,0.8,2.4c0.5,0.5,1.3,0.8,2.3,0.8c2,0,3-1.1,3-3.2V101H294.9z M302.7,114.1h-2.1
	v-11.2h-3.8V101h9.8v1.8h-3.8V114.1z M308.5,114.1v-13h2.1v13H308.5z M325.7,107.5c0,2.1-0.5,3.8-1.6,4.9c-1.1,1.2-2.6,1.8-4.5,1.8
	c-2,0-3.5-0.6-4.5-1.8c-1.1-1.2-1.6-2.8-1.6-5c0-2.2,0.5-3.8,1.6-5c1.1-1.2,2.6-1.7,4.5-1.7c1.9,0,3.4,0.6,4.5,1.8
	C325.2,103.7,325.7,105.4,325.7,107.5 M315.7,107.5c0,1.6,0.3,2.8,1,3.7c0.6,0.8,1.6,1.2,2.9,1.2c1.3,0,2.2-0.4,2.9-1.2
	c0.6-0.8,1-2,1-3.7c0-1.6-0.3-2.8-1-3.6c-0.6-0.8-1.6-1.2-2.9-1.2c-1.3,0-2.2,0.4-2.9,1.2C316.1,104.7,315.7,105.9,315.7,107.5z
	 M339.4,114.1h-2.6l-6.4-10.4h-0.1l0,0.6c0.1,1.1,0.1,2.1,0.1,3v6.8h-1.9v-13h2.6l6.4,10.3h0.1c0-0.1,0-0.6-0.1-1.5
	c0-0.9-0.1-1.5-0.1-2V101h2V114.1z M350.3,110.5c0,1.2-0.4,2.1-1.3,2.7c-0.8,0.7-2,1-3.5,1c-1.5,0-2.7-0.2-3.6-0.7v-2
	c0.6,0.3,1.2,0.5,1.9,0.7c0.7,0.2,1.3,0.2,1.9,0.2c0.8,0,1.5-0.2,1.9-0.5c0.4-0.3,0.6-0.7,0.6-1.3c0-0.5-0.2-0.9-0.5-1.2
	c-0.4-0.3-1.1-0.7-2.3-1.2c-1.2-0.5-2-1-2.5-1.6c-0.5-0.6-0.7-1.4-0.7-2.2c0-1.1,0.4-1.9,1.2-2.6c0.8-0.6,1.8-0.9,3.1-0.9
	c1.3,0,2.5,0.3,3.7,0.8l-0.7,1.7c-1.2-0.5-2.2-0.7-3.1-0.7c-0.7,0-1.2,0.2-1.6,0.5c-0.4,0.3-0.5,0.7-0.5,1.2c0,0.3,0.1,0.6,0.2,0.9
	c0.1,0.2,0.4,0.5,0.7,0.7c0.3,0.2,0.9,0.5,1.8,0.8c1,0.4,1.7,0.8,2.1,1.1c0.4,0.3,0.8,0.7,1,1.2
	C350.2,109.4,350.3,109.9,350.3,110.5z"/>
</svg>
